<svg xmlns="http://www.w3.org/2000/svg" xmlns:xlink="http://www.w3.org/1999/xlink" contentstyletype="text/css" data-diagram-type="CLASS" height="1297px" preserveAspectRatio="none" style="width:1258px;height:1297px;background:#FFFFFF;" version="1.1" viewBox="0 0 1258 1297" width="1258px" zoomAndPan="magnify" overflow="visible"><?plantuml 1.2026.6?><defs/><g><g class="title" data-source-line="3"><text fill="#000000" font-family="sans-serif" font-size="14" font-weight="700" lengthAdjust="spacing" textLength="114.4404" x="568.6989" y="22.9951">Virtual Library</text></g><!--class application--><g class="entity" data-qualified-name="application" data-source-line="5" id="ent0001"><rect fill="#F1F1F1" height="341.3438" rx="2.5" ry="2.5" style="stroke:#181818;stroke-width:0.5;" width="163.3545" x="599.81" y="44.2969"/><ellipse cx="639.168" cy="60.2969" fill="#ADD1B2" rx="11" ry="11" style="stroke:#181818;stroke-width:1;"/><path d="M642.1368,65.9375 Q641.5586,66.2344 640.918,66.375 Q640.2774,66.5313 639.5743,66.5313 Q637.0743,66.5313 635.7461,64.8906 Q634.4336,63.2344 634.4336,60.1094 Q634.4336,56.9844 635.7461,55.3281 Q637.0743,53.6719 639.5743,53.6719 Q640.2774,53.6719 640.918,53.8281 Q641.5743,53.9844 642.1368,54.2813 L642.1368,57 Q641.5118,56.4219 640.918,56.1563 Q640.3243,55.875 639.6993,55.875 Q638.3555,55.875 637.668,56.9531 Q636.9805,58.0156 636.9805,60.1094 Q636.9805,62.2031 637.668,63.2813 Q638.3555,64.3438 639.6993,64.3438 Q640.3243,64.3438 640.918,64.0781 Q641.5118,63.7969 642.1368,63.2188 L642.1368,65.9375 Z " fill="#000000"/><text fill="#000000" font-family="sans-serif" font-size="14" lengthAdjust="spacing" textLength="77.2256" x="658.5809" y="65.1436">application</text><line style="stroke:#181818;stroke-width:0.5;" x1="600.81" x2="762.1645" y1="76.2969" y2="76.2969"/><g data-visibility-modifier="PRIVATE_FIELD"><rect fill="none" height="6" style="stroke:#C82930;stroke-width:1;" width="6" x="607.81" y="86.9453"/></g><text fill="#000000" font-family="sans-serif" font-size="14" lengthAdjust="spacing" textLength="70.875" x="619.81" y="93.292">lib: library</text><g data-visibility-modifier="PRIVATE_FIELD"><rect fill="none" height="6" style="stroke:#C82930;stroke-width:1;" width="6" x="607.81" y="103.2422"/></g><text fill="#000000" font-family="sans-serif" font-size="14" lengthAdjust="spacing" textLength="121.3926" x="619.81" y="109.5889">terminal: console</text><g data-visibility-modifier="PRIVATE_FIELD"><rect fill="none" height="6" style="stroke:#C82930;stroke-width:1;" width="6" x="607.81" y="119.5391"/></g><text fill="#000000" font-family="sans-serif" font-size="14" lengthAdjust="spacing" textLength="101.5752" x="619.81" y="125.8857">reader: reader</text><g data-visibility-modifier="PRIVATE_FIELD"><rect fill="none" height="6" style="stroke:#C82930;stroke-width:1;" width="6" x="607.81" y="135.8359"/></g><text fill="#000000" font-family="sans-serif" font-size="14" lengthAdjust="spacing" textLength="91.0752" x="619.81" y="142.1826">writer: writer</text><line style="stroke:#181818;stroke-width:0.5;" x1="600.81" x2="762.1645" y1="149.4844" y2="149.4844"/><g data-visibility-modifier="PRIVATE_METHOD"><rect fill="#F24D5C" height="6" style="stroke:#C82930;stroke-width:1;" width="6" x="607.81" y="160.1328"/></g><text fill="#000000" font-family="sans-serif" font-size="14" lengthAdjust="spacing" textLength="136.4043" x="619.81" y="166.4795">home_menu(): void</text><g data-visibility-modifier="PRIVATE_METHOD"><rect fill="#F24D5C" height="6" style="stroke:#C82930;stroke-width:1;" width="6" x="607.81" y="176.4297"/></g><text fill="#000000" font-family="sans-serif" font-size="14" lengthAdjust="spacing" textLength="137.3545" x="619.81" y="182.7764">entity_menu(): void</text><g data-visibility-modifier="PRIVATE_METHOD"><rect fill="#F24D5C" height="6" style="stroke:#C82930;stroke-width:1;" width="6" x="607.81" y="192.7266"/></g><text fill="#000000" font-family="sans-serif" font-size="14" lengthAdjust="spacing" textLength="113.3809" x="619.81" y="199.0732">lib_menu(): void</text><g data-visibility-modifier="PRIVATE_METHOD"><rect fill="#F24D5C" height="6" style="stroke:#C82930;stroke-width:1;" width="6" x="607.81" y="209.0234"/></g><text fill="#000000" font-family="sans-serif" font-size="14" lengthAdjust="spacing" textLength="117.2773" x="619.81" y="215.3701">list_menu(): void</text><g data-visibility-modifier="PRIVATE_METHOD"><rect fill="#F24D5C" height="6" style="stroke:#C82930;stroke-width:1;" width="6" x="607.81" y="225.3203"/></g><text fill="#000000" font-family="sans-serif" font-size="14" lengthAdjust="spacing" textLength="112.0068" x="619.81" y="231.667">add_new(): void</text><g data-visibility-modifier="PRIVATE_METHOD"><rect fill="#F24D5C" height="6" style="stroke:#C82930;stroke-width:1;" width="6" x="607.81" y="241.6172"/></g><text fill="#000000" font-family="sans-serif" font-size="14" lengthAdjust="spacing" textLength="90.624" x="619.81" y="247.9639">invert(): void</text><g data-visibility-modifier="PRIVATE_METHOD"><rect fill="#F24D5C" height="6" style="stroke:#C82930;stroke-width:1;" width="6" x="607.81" y="257.9141"/></g><text fill="#000000" font-family="sans-serif" font-size="14" lengthAdjust="spacing" textLength="103.1885" x="619.81" y="264.2607">remove(): void</text><g data-visibility-modifier="PRIVATE_METHOD"><rect fill="#F24D5C" height="6" style="stroke:#C82930;stroke-width:1;" width="6" x="607.81" y="274.2109"/></g><text fill="#000000" font-family="sans-serif" font-size="14" lengthAdjust="spacing" textLength="82.4893" x="619.81" y="280.5576">save(): void</text><g data-visibility-modifier="PRIVATE_METHOD"><rect fill="#F24D5C" height="6" style="stroke:#C82930;stroke-width:1;" width="6" x="607.81" y="290.5078"/></g><text fill="#000000" font-family="sans-serif" font-size="14" lengthAdjust="spacing" textLength="79.6387" x="619.81" y="296.8545">load(): void</text><g data-visibility-modifier="PRIVATE_METHOD"><rect fill="#F24D5C" height="6" style="stroke:#C82930;stroke-width:1;" width="6" x="607.81" y="306.8047"/></g><text fill="#000000" font-family="sans-serif" font-size="14" lengthAdjust="spacing" textLength="102.7236" x="619.81" y="313.1514">list_ava(): void</text><g data-visibility-modifier="PRIVATE_METHOD"><rect fill="#F24D5C" height="6" style="stroke:#C82930;stroke-width:1;" width="6" x="607.81" y="323.1016"/></g><text fill="#000000" font-family="sans-serif" font-size="14" lengthAdjust="spacing" textLength="103.5918" x="619.81" y="329.4482">list_non(): void</text><g data-visibility-modifier="PRIVATE_METHOD"><rect fill="#F24D5C" height="6" style="stroke:#C82930;stroke-width:1;" width="6" x="607.81" y="339.3984"/></g><text fill="#000000" font-family="sans-serif" font-size="14" lengthAdjust="spacing" textLength="93.6387" x="619.81" y="345.7451">list_all(): void</text><g data-visibility-modifier="PRIVATE_METHOD"><rect fill="#F24D5C" height="6" style="stroke:#C82930;stroke-width:1;" width="6" x="607.81" y="355.6953"/></g><text fill="#000000" font-family="sans-serif" font-size="14" lengthAdjust="spacing" textLength="129.8418" x="619.81" y="362.042">exit_screen(): void</text><g data-visibility-modifier="PUBLIC_METHOD"><ellipse cx="610.81" cy="374.9922" fill="#84BE84" rx="3" ry="3" style="stroke:#038048;stroke-width:1;"/></g><text fill="#000000" font-family="sans-serif" font-size="14" lengthAdjust="spacing" textLength="73.2197" x="619.81" y="378.3389">run(): void</text></g><!--class library--><g class="entity" data-qualified-name="library" data-source-line="27" id="ent0002"><rect fill="#F1F1F1" height="194.6719" rx="2.5" ry="2.5" style="stroke:#181818;stroke-width:0.5;" width="404.9844" x="7" y="478.9369"/><ellipse cx="182.7212" cy="494.9369" fill="#ADD1B2" rx="11" ry="11" style="stroke:#181818;stroke-width:1;"/><path d="M185.6899,500.5775 Q185.1118,500.8744 184.4712,501.015 Q183.8306,501.1712 183.1274,501.1712 Q180.6274,501.1712 179.2993,499.5306 Q177.9868,497.8744 177.9868,494.7494 Q177.9868,491.6244 179.2993,489.9681 Q180.6274,488.3119 183.1274,488.3119 Q183.8306,488.3119 184.4712,488.4681 Q185.1274,488.6244 185.6899,488.9212 L185.6899,491.64 Q185.0649,491.0619 184.4712,490.7962 Q183.8774,490.515 183.2524,490.515 Q181.9087,490.515 181.2212,491.5931 Q180.5337,492.6556 180.5337,494.7494 Q180.5337,496.8431 181.2212,497.9212 Q181.9087,498.9837 183.2524,498.9837 Q183.8774,498.9837 184.4712,498.7181 Q185.0649,498.4369 185.6899,497.8587 L185.6899,500.5775 Z " fill="#000000"/><text fill="#000000" font-family="sans-serif" font-size="14" lengthAdjust="spacing" textLength="45.042" x="203.2212" y="499.7836">library</text><line style="stroke:#181818;stroke-width:0.5;" x1="8" x2="410.9844" y1="510.9369" y2="510.9369"/><g data-visibility-modifier="PRIVATE_FIELD"><rect fill="none" height="6" style="stroke:#C82930;stroke-width:1;" width="6" x="15" y="521.5853"/></g><text fill="#000000" font-family="sans-serif" font-size="14" lengthAdjust="spacing" textLength="195.2139" x="27" y="527.932">shelf: vector&lt;data_carrier&gt;</text><line style="stroke:#181818;stroke-width:0.5;" x1="8" x2="410.9844" y1="535.2337" y2="535.2337"/><g data-visibility-modifier="PUBLIC_METHOD"><ellipse cx="18" cy="548.8822" fill="#84BE84" rx="3" ry="3" style="stroke:#038048;stroke-width:1;"/></g><text fill="#000000" font-family="sans-serif" font-size="14" lengthAdjust="spacing" textLength="378.9844" x="27" y="552.2289">add(type: int,author: string,title: string,year: int): void</text><g data-visibility-modifier="PUBLIC_METHOD"><ellipse cx="18" cy="565.1791" fill="#84BE84" rx="3" ry="3" style="stroke:#038048;stroke-width:1;"/></g><text fill="#000000" font-family="sans-serif" font-size="14" lengthAdjust="spacing" textLength="143.3838" x="27" y="568.5257">remove(id: int): void</text><g data-visibility-modifier="PUBLIC_METHOD"><ellipse cx="18" cy="581.4759" fill="#84BE84" rx="3" ry="3" style="stroke:#038048;stroke-width:1;"/></g><text fill="#000000" font-family="sans-serif" font-size="14" lengthAdjust="spacing" textLength="141.4355" x="27" y="584.8226">change(id: int): void</text><g data-visibility-modifier="PUBLIC_METHOD"><ellipse cx="18" cy="597.7728" fill="#84BE84" rx="3" ry="3" style="stroke:#038048;stroke-width:1;"/></g><text fill="#000000" font-family="sans-serif" font-size="14" lengthAdjust="spacing" textLength="221.3271" x="27" y="601.1195">get_available(): vector&lt;string&gt;</text><g data-visibility-modifier="PUBLIC_METHOD"><ellipse cx="18" cy="614.0697" fill="#84BE84" rx="3" ry="3" style="stroke:#038048;stroke-width:1;"/></g><text fill="#000000" font-family="sans-serif" font-size="14" lengthAdjust="spacing" textLength="254.6387" x="27" y="617.4164">get_non_available(): vector&lt;string&gt;</text><g data-visibility-modifier="PUBLIC_METHOD"><ellipse cx="18" cy="630.3666" fill="#84BE84" rx="3" ry="3" style="stroke:#038048;stroke-width:1;"/></g><text fill="#000000" font-family="sans-serif" font-size="14" lengthAdjust="spacing" textLength="174.4941" x="27" y="633.7132">get_all(): vector&lt;string&gt;</text><g data-visibility-modifier="PUBLIC_METHOD"><ellipse cx="18" cy="646.6634" fill="#84BE84" rx="3" ry="3" style="stroke:#038048;stroke-width:1;"/></g><text fill="#000000" font-family="sans-serif" font-size="14" lengthAdjust="spacing" textLength="235.7852" x="27" y="650.0101">load(items: vector&lt;string&gt;): void</text><g data-visibility-modifier="PUBLIC_METHOD"><ellipse cx="18" cy="662.9603" fill="#84BE84" rx="3" ry="3" style="stroke:#038048;stroke-width:1;"/></g><text fill="#000000" font-family="sans-serif" font-size="14" lengthAdjust="spacing" textLength="156.4678" x="27" y="666.307">save():vector&lt;string&gt;</text></g><!--class console--><g class="entity" data-qualified-name="console" data-source-line="28" id="ent0004"><rect fill="#F1F1F1" height="227.2656" rx="2.5" ry="2.5" style="stroke:#181818;stroke-width:0.5;" width="280.1191" x="447.43" y="462.6369"/><ellipse cx="556.4905" cy="478.6369" fill="#ADD1B2" rx="11" ry="11" style="stroke:#181818;stroke-width:1;"/><path d="M559.4593,484.2775 Q558.8812,484.5744 558.2405,484.715 Q557.5999,484.8712 556.8968,484.8712 Q554.3968,484.8712 553.0687,483.2306 Q551.7562,481.5744 551.7562,478.4494 Q551.7562,475.3244 553.0687,473.6681 Q554.3968,472.0119 556.8968,472.0119 Q557.5999,472.0119 558.2405,472.1681 Q558.8968,472.3244 559.4593,472.6212 L559.4593,475.34 Q558.8343,474.7619 558.2405,474.4962 Q557.6468,474.215 557.0218,474.215 Q555.678,474.215 554.9905,475.2931 Q554.303,476.3556 554.303,478.4494 Q554.303,480.5431 554.9905,481.6212 Q555.678,482.6837 557.0218,482.6837 Q557.6468,482.6837 558.2405,482.4181 Q558.8343,482.1369 559.4593,481.5587 L559.4593,484.2775 Z " fill="#000000"/><text fill="#000000" font-family="sans-serif" font-size="14" lengthAdjust="spacing" textLength="53.498" x="576.9905" y="483.4836">console</text><line style="stroke:#181818;stroke-width:0.5;" x1="448.43" x2="726.5491" y1="494.6369" y2="494.6369"/><g data-visibility-modifier="PRIVATE_FIELD"><rect fill="none" height="6" style="stroke:#C82930;stroke-width:1;" width="6" x="455.43" y="505.2853"/></g><text fill="#000000" font-family="sans-serif" font-size="14" lengthAdjust="spacing" textLength="94.6025" x="467.43" y="511.632">working: bool</text><line style="stroke:#181818;stroke-width:0.5;" x1="448.43" x2="726.5491" y1="518.9337" y2="518.9337"/><g data-visibility-modifier="PUBLIC_METHOD"><ellipse cx="458.43" cy="532.5822" fill="#84BE84" rx="3" ry="3" style="stroke:#038048;stroke-width:1;"/></g><text fill="#000000" font-family="sans-serif" font-size="14" lengthAdjust="spacing" textLength="132.5898" x="467.43" y="535.9289">show_home(): void</text><g data-visibility-modifier="PUBLIC_METHOD"><ellipse cx="458.43" cy="548.8791" fill="#84BE84" rx="3" ry="3" style="stroke:#038048;stroke-width:1;"/></g><text fill="#000000" font-family="sans-serif" font-size="14" lengthAdjust="spacing" textLength="153.5898" x="467.43" y="552.2257">show_goodbye(): void</text><g data-visibility-modifier="PUBLIC_METHOD"><ellipse cx="458.43" cy="565.1759" fill="#84BE84" rx="3" ry="3" style="stroke:#038048;stroke-width:1;"/></g><text fill="#000000" font-family="sans-serif" font-size="14" lengthAdjust="spacing" textLength="182.1914" x="467.43" y="568.5226">show_entity_mgmt(): void</text><g data-visibility-modifier="PUBLIC_METHOD"><ellipse cx="458.43" cy="581.4728" fill="#84BE84" rx="3" ry="3" style="stroke:#038048;stroke-width:1;"/></g><text fill="#000000" font-family="sans-serif" font-size="14" lengthAdjust="spacing" textLength="158.2178" x="467.43" y="584.8195">show_lib_mgmt(): void</text><g data-visibility-modifier="PUBLIC_METHOD"><ellipse cx="458.43" cy="597.7697" fill="#84BE84" rx="3" ry="3" style="stroke:#038048;stroke-width:1;"/></g><text fill="#000000" font-family="sans-serif" font-size="14" lengthAdjust="spacing" textLength="160.46" x="467.43" y="601.1164">show_list_menu(): void</text><g data-visibility-modifier="PUBLIC_METHOD"><ellipse cx="458.43" cy="614.0666" fill="#84BE84" rx="3" ry="3" style="stroke:#038048;stroke-width:1;"/></g><text fill="#000000" font-family="sans-serif" font-size="14" lengthAdjust="spacing" textLength="254.1191" x="467.43" y="617.4132">show_list(span&lt;string&gt; items): void</text><g data-visibility-modifier="PUBLIC_METHOD"><ellipse cx="458.43" cy="630.3634" fill="#84BE84" rx="3" ry="3" style="stroke:#038048;stroke-width:1;"/></g><text fill="#000000" font-family="sans-serif" font-size="14" lengthAdjust="spacing" textLength="200.1904" x="467.43" y="633.7101">question(string_view): string</text><g data-visibility-modifier="PUBLIC_METHOD"><ellipse cx="458.43" cy="646.6603" fill="#84BE84" rx="3" ry="3" style="stroke:#038048;stroke-width:1;"/></g><text fill="#000000" font-family="sans-serif" font-size="14" lengthAdjust="spacing" textLength="118.8975" x="467.43" y="650.007">get_answer(): int</text><g data-visibility-modifier="PUBLIC_METHOD"><ellipse cx="458.43" cy="662.9572" fill="#84BE84" rx="3" ry="3" style="stroke:#038048;stroke-width:1;"/></g><text fill="#000000" font-family="sans-serif" font-size="14" lengthAdjust="spacing" textLength="123.71" x="467.43" y="666.3039">is_working(): bool</text><g data-visibility-modifier="PUBLIC_METHOD"><ellipse cx="458.43" cy="679.2541" fill="#84BE84" rx="3" ry="3" style="stroke:#038048;stroke-width:1;"/></g><text fill="#000000" font-family="sans-serif" font-size="14" lengthAdjust="spacing" textLength="76.8564" x="467.43" y="682.6007">quit(): void</text></g><!--class reader--><g class="entity" data-qualified-name="reader" data-source-line="29" id="ent0006"><rect fill="#F1F1F1" height="80.5938" rx="2.5" ry="2.5" style="stroke:#181818;stroke-width:0.5;" width="185.9814" x="762.5" y="535.9769"/><ellipse cx="828.1387" cy="551.9769" fill="#ADD1B2" rx="11" ry="11" style="stroke:#181818;stroke-width:1;"/><path d="M831.1074,557.6175 Q830.5293,557.9144 829.8887,558.055 Q829.248,558.2113 828.5449,558.2113 Q826.0449,558.2113 824.7168,556.5706 Q823.4043,554.9144 823.4043,551.7894 Q823.4043,548.6644 824.7168,547.0081 Q826.0449,545.3519 828.5449,545.3519 Q829.248,545.3519 829.8887,545.5081 Q830.5449,545.6644 831.1074,545.9613 L831.1074,548.68 Q830.4824,548.1019 829.8887,547.8363 Q829.2949,547.555 828.6699,547.555 Q827.3262,547.555 826.6387,548.6331 Q825.9512,549.6956 825.9512,551.7894 Q825.9512,553.8831 826.6387,554.9613 Q827.3262,556.0238 828.6699,556.0238 Q829.2949,556.0238 829.8887,555.7581 Q830.4824,555.4769 831.1074,554.8988 L831.1074,557.6175 Z " fill="#000000"/><text fill="#000000" font-family="sans-serif" font-size="14" lengthAdjust="spacing" textLength="46.2041" x="848.6387" y="556.8236">reader</text><line style="stroke:#181818;stroke-width:0.5;" x1="763.5" x2="947.4814" y1="567.9769" y2="567.9769"/><g data-visibility-modifier="PRIVATE_FIELD"><rect fill="none" height="6" style="stroke:#C82930;stroke-width:1;" width="6" x="770.5" y="578.6253"/></g><text fill="#000000" font-family="sans-serif" font-size="14" lengthAdjust="spacing" textLength="110.5986" x="782.5" y="584.972">myfile: ifstream</text><line style="stroke:#181818;stroke-width:0.5;" x1="763.5" x2="947.4814" y1="592.2738" y2="592.2738"/><g data-visibility-modifier="PUBLIC_METHOD"><ellipse cx="773.5" cy="605.9222" fill="#84BE84" rx="3" ry="3" style="stroke:#038048;stroke-width:1;"/></g><text fill="#000000" font-family="sans-serif" font-size="14" lengthAdjust="spacing" textLength="159.9814" x="782.5" y="609.2689">read(): vector&lt;string&gt;</text></g><!--class writer--><g class="entity" data-qualified-name="writer" data-source-line="30" id="ent0008"><rect fill="#F1F1F1" height="80.5938" rx="2.5" ry="2.5" style="stroke:#181818;stroke-width:0.5;" width="260.6982" x="983.14" y="535.9769"/><ellipse cx="1088.7621" cy="551.9769" fill="#ADD1B2" rx="11" ry="11" style="stroke:#181818;stroke-width:1;"/><path d="M1091.7308,557.6175 Q1091.1527,557.9144 1090.5121,558.055 Q1089.8714,558.2113 1089.1683,558.2113 Q1086.6683,558.2113 1085.3402,556.5706 Q1084.0277,554.9144 1084.0277,551.7894 Q1084.0277,548.6644 1085.3402,547.0081 Q1086.6683,545.3519 1089.1683,545.3519 Q1089.8714,545.3519 1090.5121,545.5081 Q1091.1683,545.6644 1091.7308,545.9613 L1091.7308,548.68 Q1091.1058,548.1019 1090.5121,547.8363 Q1089.9183,547.555 1089.2933,547.555 Q1087.9496,547.555 1087.2621,548.6331 Q1086.5746,549.6956 1086.5746,551.7894 Q1086.5746,553.8831 1087.2621,554.9613 Q1087.9496,556.0238 1089.2933,556.0238 Q1089.9183,556.0238 1090.5121,555.7581 Q1091.1058,555.4769 1091.7308,554.8988 L1091.7308,557.6175 Z " fill="#000000"/><text fill="#000000" font-family="sans-serif" font-size="14" lengthAdjust="spacing" textLength="40.9541" x="1109.2621" y="556.8236">writer</text><line style="stroke:#181818;stroke-width:0.5;" x1="984.14" x2="1242.8382" y1="567.9769" y2="567.9769"/><g data-visibility-modifier="PRIVATE_FIELD"><rect fill="none" height="6" style="stroke:#C82930;stroke-width:1;" width="6" x="991.14" y="578.6253"/></g><text fill="#000000" font-family="sans-serif" font-size="14" lengthAdjust="spacing" textLength="115.2744" x="1003.14" y="584.972">myfile: ofstream</text><line style="stroke:#181818;stroke-width:0.5;" x1="984.14" x2="1242.8382" y1="592.2738" y2="592.2738"/><g data-visibility-modifier="PUBLIC_METHOD"><ellipse cx="994.14" cy="605.9222" fill="#84BE84" rx="3" ry="3" style="stroke:#038048;stroke-width:1;"/></g><text fill="#000000" font-family="sans-serif" font-size="14" lengthAdjust="spacing" textLength="234.6982" x="1003.14" y="609.2689">write(lines: vector&lt;string&gt;): void</text></g><!--class screen_builder--><g class="entity" data-qualified-name="screen_builder" data-source-line="48" id="ent0010"><rect fill="#F1F1F1" height="276.1563" rx="2.5" ry="2.5" style="stroke:#181818;stroke-width:0.5;" width="378.6592" x="398.16" y="766.9069"/><ellipse cx="531.9188" cy="782.9069" fill="#ADD1B2" rx="11" ry="11" style="stroke:#181818;stroke-width:1;"/><path d="M534.8875,788.5475 Q534.3094,788.8444 533.6688,788.985 Q533.0282,789.1412 532.325,789.1412 Q529.825,789.1412 528.4969,787.5006 Q527.1844,785.8444 527.1844,782.7194 Q527.1844,779.5944 528.4969,777.9381 Q529.825,776.2819 532.325,776.2819 Q533.0282,776.2819 533.6688,776.4381 Q534.325,776.5944 534.8875,776.8912 L534.8875,779.61 Q534.2625,779.0319 533.6688,778.7662 Q533.075,778.485 532.45,778.485 Q531.1063,778.485 530.4188,779.5631 Q529.7313,780.6256 529.7313,782.7194 Q529.7313,784.8131 530.4188,785.8912 Q531.1063,786.9537 532.45,786.9537 Q533.075,786.9537 533.6688,786.6881 Q534.2625,786.4069 534.8875,785.8287 L534.8875,788.5475 Z " fill="#000000"/><text fill="#000000" font-family="sans-serif" font-size="14" lengthAdjust="spacing" textLength="102.6416" x="552.4188" y="787.7536">screen_builder</text><line style="stroke:#181818;stroke-width:0.5;" x1="399.16" x2="775.8192" y1="798.9069" y2="798.9069"/><g data-visibility-modifier="PRIVATE_FIELD"><rect fill="none" height="6" style="stroke:#C82930;stroke-width:1;" width="6" x="406.16" y="809.5553"/></g><text fill="#000000" font-family="sans-serif" font-size="14" lengthAdjust="spacing" textLength="76.7607" x="418.16" y="815.902">scr: screen</text><g data-visibility-modifier="PRIVATE_FIELD"><rect fill="none" height="6" style="stroke:#C82930;stroke-width:1;" width="6" x="406.16" y="825.8522"/></g><text fill="#000000" font-family="sans-serif" font-size="14" lengthAdjust="spacing" textLength="151.2656" x="418.16" y="832.1989">width: static const int</text><g data-visibility-modifier="PRIVATE_FIELD"><rect fill="none" height="6" style="stroke:#C82930;stroke-width:1;" width="6" x="406.16" y="842.1491"/></g><text fill="#000000" font-family="sans-serif" font-size="14" lengthAdjust="spacing" textLength="159.8789" x="418.16" y="848.4957">line: static const string</text><g data-visibility-modifier="PRIVATE_FIELD"><rect fill="none" height="6" style="stroke:#C82930;stroke-width:1;" width="6" x="406.16" y="858.4459"/></g><text fill="#000000" font-family="sans-serif" font-size="14" lengthAdjust="spacing" textLength="179.5254" x="418.16" y="864.7926">empty: static const string</text><g data-visibility-modifier="PRIVATE_FIELD"><rect fill="none" height="6" style="stroke:#C82930;stroke-width:1;" width="6" x="406.16" y="874.7428"/></g><text fill="#000000" font-family="sans-serif" font-size="14" lengthAdjust="spacing" textLength="157.5684" x="418.16" y="881.0895">tab: static const string</text><line style="stroke:#181818;stroke-width:0.5;" x1="399.16" x2="775.8192" y1="888.3912" y2="888.3912"/><g data-visibility-modifier="PUBLIC_METHOD"><ellipse cx="409.16" cy="902.0397" fill="#84BE84" rx="3" ry="3" style="stroke:#038048;stroke-width:1;"/></g><text fill="#000000" font-family="sans-serif" font-size="14" lengthAdjust="spacing" textLength="118.2822" x="418.16" y="905.3864">screen_builder();</text><g data-visibility-modifier="PUBLIC_METHOD"><ellipse cx="409.16" cy="918.3366" fill="#84BE84" rx="3" ry="3" style="stroke:#038048;stroke-width:1;"/></g><text fill="#000000" font-family="sans-serif" font-size="14" lengthAdjust="spacing" textLength="283.1172" x="418.16" y="921.6832">screen_builder &amp;&amp;add_row(string_view);</text><g data-visibility-modifier="PUBLIC_METHOD"><ellipse cx="409.16" cy="934.6334" fill="#84BE84" rx="3" ry="3" style="stroke:#038048;stroke-width:1;"/></g><text fill="#000000" font-family="sans-serif" font-size="14" lengthAdjust="spacing" textLength="313.0723" x="418.16" y="937.9801">screen_builder &amp;&amp;add_tab_row(string_view);</text><g data-visibility-modifier="PUBLIC_METHOD"><ellipse cx="409.16" cy="950.9303" fill="#84BE84" rx="3" ry="3" style="stroke:#038048;stroke-width:1;"/></g><text fill="#000000" font-family="sans-serif" font-size="14" lengthAdjust="spacing" textLength="352.6592" x="418.16" y="954.277">screen_builder &amp;&amp;add_row_centered(string_view);</text><g data-visibility-modifier="PUBLIC_METHOD"><ellipse cx="409.16" cy="967.2272" fill="#84BE84" rx="3" ry="3" style="stroke:#038048;stroke-width:1;"/></g><text fill="#000000" font-family="sans-serif" font-size="14" lengthAdjust="spacing" textLength="203.1846" x="418.16" y="970.5739">screen_builder &amp;&amp;add_line();</text><g data-visibility-modifier="PUBLIC_METHOD"><ellipse cx="409.16" cy="983.5241" fill="#84BE84" rx="3" ry="3" style="stroke:#038048;stroke-width:1;"/></g><text fill="#000000" font-family="sans-serif" font-size="14" lengthAdjust="spacing" textLength="222.8311" x="418.16" y="986.8707">screen_builder &amp;&amp;add_empty();</text><g data-visibility-modifier="PUBLIC_METHOD"><ellipse cx="409.16" cy="999.8209" fill="#84BE84" rx="3" ry="3" style="stroke:#038048;stroke-width:1;"/></g><text fill="#000000" font-family="sans-serif" font-size="14" lengthAdjust="spacing" textLength="179.1016" x="418.16" y="1003.1676">screen_builder &amp;&amp;clear();</text><g data-visibility-modifier="PUBLIC_METHOD"><ellipse cx="409.16" cy="1016.1178" fill="#84BE84" rx="3" ry="3" style="stroke:#038048;stroke-width:1;"/></g><text fill="#000000" font-family="sans-serif" font-size="14" lengthAdjust="spacing" textLength="127.6475" x="418.16" y="1019.4645">screen build() &amp;&amp;;</text><g data-visibility-modifier="PUBLIC_METHOD"><ellipse cx="409.16" cy="1032.4147" fill="#84BE84" rx="3" ry="3" style="stroke:#038048;stroke-width:1;"/></g><text fill="#000000" font-family="sans-serif" font-size="14" lengthAdjust="spacing" textLength="172.2998" x="418.16" y="1035.7614">screen clean_build() &amp;&amp;;</text></g><!--class screen--><g class="entity" data-qualified-name="screen" data-source-line="50" id="ent0012"><rect fill="#F1F1F1" height="113.1875" rx="2.5" ry="2.5" style="stroke:#181818;stroke-width:0.5;" width="217.96" x="478.51" y="1144.5069"/><ellipse cx="559.8166" cy="1160.5069" fill="#ADD1B2" rx="11" ry="11" style="stroke:#181818;stroke-width:1;"/><path d="M562.7854,1166.1475 Q562.2073,1166.4444 561.5666,1166.585 Q560.926,1166.7412 560.2229,1166.7412 Q557.7229,1166.7412 556.3948,1165.1006 Q555.0823,1163.4444 555.0823,1160.3194 Q555.0823,1157.1944 556.3948,1155.5381 Q557.7229,1153.8819 560.2229,1153.8819 Q560.926,1153.8819 561.5666,1154.0381 Q562.2229,1154.1944 562.7854,1154.4912 L562.7854,1157.21 Q562.1604,1156.6319 561.5666,1156.3662 Q560.9729,1156.085 560.3479,1156.085 Q559.0041,1156.085 558.3166,1157.1631 Q557.6291,1158.2256 557.6291,1160.3194 Q557.6291,1162.4131 558.3166,1163.4912 Q559.0041,1164.5537 560.3479,1164.5537 Q560.9729,1164.5537 561.5666,1164.2881 Q562.1604,1164.0069 562.7854,1163.4287 L562.7854,1166.1475 Z " fill="#000000"/><text fill="#000000" font-family="sans-serif" font-size="14" lengthAdjust="spacing" textLength="46.8467" x="580.3166" y="1165.3536">screen</text><line style="stroke:#181818;stroke-width:0.5;" x1="479.51" x2="695.47" y1="1176.5069" y2="1176.5069"/><g data-visibility-modifier="PRIVATE_FIELD"><rect fill="none" height="6" style="stroke:#C82930;stroke-width:1;" width="6" x="486.51" y="1187.1553"/></g><text fill="#000000" font-family="sans-serif" font-size="14" lengthAdjust="spacing" textLength="162.8594" x="498.51" y="1193.502">matrix: vector&lt;string&gt;</text><text fill="#000000" font-family="sans-serif" font-size="14" lengthAdjust="spacing" textLength="4.4502" x="498.51" y="1209.7989"> </text><text fill="#000000" font-family="sans-serif" font-size="14" lengthAdjust="spacing" textLength="191.96" x="498.51" y="1226.0957">friend class screen_builder;</text><line style="stroke:#181818;stroke-width:0.5;" x1="479.51" x2="695.47" y1="1233.3975" y2="1233.3975"/><g data-visibility-modifier="PUBLIC_METHOD"><ellipse cx="489.51" cy="1247.0459" fill="#84BE84" rx="3" ry="3" style="stroke:#038048;stroke-width:1;"/></g><text fill="#000000" font-family="sans-serif" font-size="14" lengthAdjust="spacing" textLength="82.6123" x="498.51" y="1250.3926">print(): void</text></g><!--class handler--><g class="entity" data-qualified-name="handler" data-source-line="81" id="ent0014"><rect fill="#F1F1F1" height="64.2969" rx="2.5" ry="2.5" style="stroke:#181818;stroke-width:0.5;" width="122.3799" x="923.3" y="872.8369"/><ellipse cx="954.9091" cy="888.8369" fill="#ADD1B2" rx="11" ry="11" style="stroke:#181818;stroke-width:1;"/><path d="M957.8779,894.4775 Q957.2998,894.7744 956.6591,894.915 Q956.0185,895.0713 955.3154,895.0713 Q952.8154,895.0713 951.4873,893.4306 Q950.1748,891.7744 950.1748,888.6494 Q950.1748,885.5244 951.4873,883.8681 Q952.8154,882.2119 955.3154,882.2119 Q956.0185,882.2119 956.6591,882.3681 Q957.3154,882.5244 957.8779,882.8213 L957.8779,885.54 Q957.2529,884.9619 956.6591,884.6963 Q956.0654,884.415 955.4404,884.415 Q954.0966,884.415 953.4091,885.4931 Q952.7216,886.5556 952.7216,888.6494 Q952.7216,890.7431 953.4091,891.8213 Q954.0966,892.8838 955.4404,892.8838 Q956.0654,892.8838 956.6591,892.6181 Q957.2529,892.3369 957.8779,891.7588 L957.8779,894.4775 Z " fill="#000000"/><text fill="#000000" font-family="sans-serif" font-size="14" lengthAdjust="spacing" textLength="53.4707" x="972.6" y="893.6836">handler</text><line style="stroke:#181818;stroke-width:0.5;" x1="924.3" x2="1044.6799" y1="904.8369" y2="904.8369"/><text fill="#000000" font-family="sans-serif" font-size="14" lengthAdjust="spacing" textLength="110.3799" x="929.3" y="921.832">filename: string</text><line style="stroke:#181818;stroke-width:0.5;" x1="924.3" x2="1044.6799" y1="929.1338" y2="929.1338"/></g><!--class data_carrier_type--><g class="entity" data-qualified-name="data_carrier_type" data-source-line="101" id="ent0017"><rect fill="#F1F1F1" height="162.0781" rx="2.5" ry="2.5" style="stroke:#181818;stroke-width:0.5;" width="154.8555" x="132.06" y="1120.0569"/><ellipse cx="147.06" cy="1136.0569" fill="#EB937F" rx="11" ry="11" style="stroke:#181818;stroke-width:1;"/><path d="M151.1694,1142.0569 L143.4506,1142.0569 L143.4506,1129.6663 L151.1694,1129.6663 L151.1694,1131.8225 L145.9038,1131.8225 L145.9038,1134.4944 L150.6694,1134.4944 L150.6694,1136.6506 L145.9038,1136.6506 L145.9038,1139.9006 L151.1694,1139.9006 L151.1694,1142.0569 Z " fill="#000000"/><text fill="#000000" font-family="sans-serif" font-size="14" lengthAdjust="spacing" textLength="122.8555" x="161.06" y="1140.9036">data_carrier_type</text><line style="stroke:#181818;stroke-width:0.5;" x1="133.06" x2="285.9155" y1="1152.0569" y2="1152.0569"/><text fill="#000000" font-family="sans-serif" font-size="14" lengthAdjust="spacing" textLength="39.293" x="138.06" y="1169.052">Book,</text><text fill="#000000" font-family="sans-serif" font-size="14" lengthAdjust="spacing" textLength="71.2988" x="138.06" y="1185.3489">Magazine,</text><text fill="#000000" font-family="sans-serif" font-size="14" lengthAdjust="spacing" textLength="62.9043" x="138.06" y="1201.6457">AudioCd,</text><text fill="#000000" font-family="sans-serif" font-size="14" lengthAdjust="spacing" textLength="64.832" x="138.06" y="1217.9426">CD_ROM,</text><text fill="#000000" font-family="sans-serif" font-size="14" lengthAdjust="spacing" textLength="112.3896" x="138.06" y="1234.2395">Audio_Cassette,</text><text fill="#000000" font-family="sans-serif" font-size="14" lengthAdjust="spacing" textLength="112.1299" x="138.06" y="1250.5364">Video_Cassette,</text><text fill="#000000" font-family="sans-serif" font-size="14" lengthAdjust="spacing" textLength="34.6787" x="138.06" y="1266.8332">Error</text><line style="stroke:#181818;stroke-width:0.5;" x1="133.06" x2="285.9155" y1="1274.135" y2="1274.135"/></g><!--class data_carrier--><g class="entity" data-qualified-name="data_carrier" data-source-line="111" id="ent0018"><rect fill="#F1F1F1" height="227.2656" rx="2.5" ry="2.5" style="stroke:#181818;stroke-width:0.5;" width="273.3857" x="72.8" y="791.3469"/><ellipse cx="162.9523" cy="807.3469" fill="#ADD1B2" rx="11" ry="11" style="stroke:#181818;stroke-width:1;"/><path d="M165.9211,812.9875 Q165.343,813.2844 164.7023,813.425 Q164.0617,813.5813 163.3586,813.5813 Q160.8586,813.5813 159.5305,811.9406 Q158.218,810.2844 158.218,807.1594 Q158.218,804.0344 159.5305,802.3781 Q160.8586,800.7219 163.3586,800.7219 Q164.0617,800.7219 164.7023,800.8781 Q165.3586,801.0344 165.9211,801.3313 L165.9211,804.05 Q165.2961,803.4719 164.7023,803.2063 Q164.1086,802.925 163.4836,802.925 Q162.1398,802.925 161.4523,804.0031 Q160.7648,805.0656 160.7648,807.1594 Q160.7648,809.2531 161.4523,810.3313 Q162.1398,811.3938 163.4836,811.3938 Q164.1086,811.3938 164.7023,811.1281 Q165.2961,810.8469 165.9211,810.2688 L165.9211,812.9875 Z " fill="#000000"/><text fill="#000000" font-family="sans-serif" font-size="14" lengthAdjust="spacing" textLength="84.5811" x="183.4523" y="812.1936">data_carrier</text><line style="stroke:#181818;stroke-width:0.5;" x1="73.8" x2="345.1857" y1="823.3469" y2="823.3469"/><g data-visibility-modifier="PRIVATE_FIELD"><rect fill="none" height="6" style="stroke:#C82930;stroke-width:1;" width="6" x="80.8" y="833.9953"/></g><text fill="#000000" font-family="sans-serif" font-size="14" lengthAdjust="spacing" textLength="163.2969" x="92.8" y="840.342">type: data_carrier_type</text><g data-visibility-modifier="PRIVATE_FIELD"><rect fill="none" height="6" style="stroke:#C82930;stroke-width:1;" width="6" x="80.8" y="850.2922"/></g><text fill="#000000" font-family="sans-serif" font-size="14" lengthAdjust="spacing" textLength="95.4912" x="92.8" y="856.6389">author: string</text><g data-visibility-modifier="PRIVATE_FIELD"><rect fill="none" height="6" style="stroke:#C82930;stroke-width:1;" width="6" x="80.8" y="866.5891"/></g><text fill="#000000" font-family="sans-serif" font-size="14" lengthAdjust="spacing" textLength="76.7266" x="92.8" y="872.9357">title: string</text><g data-visibility-modifier="PRIVATE_FIELD"><rect fill="none" height="6" style="stroke:#C82930;stroke-width:1;" width="6" x="80.8" y="882.8859"/></g><text fill="#000000" font-family="sans-serif" font-size="14" lengthAdjust="spacing" textLength="117.0107" x="92.8" y="889.2326">release_year: int</text><g data-visibility-modifier="PRIVATE_FIELD"><rect fill="none" height="6" style="stroke:#C82930;stroke-width:1;" width="6" x="80.8" y="899.1828"/></g><text fill="#000000" font-family="sans-serif" font-size="14" lengthAdjust="spacing" textLength="102.2656" x="92.8" y="905.5295">available: bool</text><line style="stroke:#181818;stroke-width:0.5;" x1="73.8" x2="345.1857" y1="912.8313" y2="912.8313"/><g data-visibility-modifier="PUBLIC_METHOD"><ellipse cx="83.8" cy="926.4797" fill="#84BE84" rx="3" ry="3" style="stroke:#038048;stroke-width:1;"/></g><text fill="#000000" font-family="sans-serif" font-size="14" lengthAdjust="spacing" textLength="90.624" x="92.8" y="929.8264">invert(): void</text><g data-visibility-modifier="PUBLIC_METHOD"><ellipse cx="83.8" cy="942.7766" fill="#84BE84" rx="3" ry="3" style="stroke:#038048;stroke-width:1;"/></g><text fill="#000000" font-family="sans-serif" font-size="14" lengthAdjust="spacing" textLength="116.1152" x="92.8" y="946.1232">toString(): string</text><g data-visibility-modifier="PUBLIC_METHOD"><ellipse cx="83.8" cy="959.0734" fill="#84BE84" rx="3" ry="3" style="stroke:#038048;stroke-width:1;"/></g><text fill="#000000" font-family="sans-serif" font-size="14" lengthAdjust="spacing" textLength="103.5098" x="92.8" y="962.4201">toLine(): string</text><g data-visibility-modifier="PUBLIC_METHOD"><ellipse cx="83.8" cy="975.3703" fill="#84BE84" rx="3" ry="3" style="stroke:#038048;stroke-width:1;"/></g><text fill="#000000" font-family="sans-serif" font-size="14" lengthAdjust="spacing" textLength="245.3623" x="92.8" y="978.717">static fromLine(string):data_carrier</text><text fill="#000000" font-family="sans-serif" font-size="14" lengthAdjust="spacing" textLength="4.4502" x="92.8" y="995.0139"> </text><g data-visibility-modifier="PRIVATE_METHOD"><rect fill="#F24D5C" height="6" style="stroke:#C82930;stroke-width:1;" width="6" x="80.8" y="1004.9641"/></g><text fill="#000000" font-family="sans-serif" font-size="14" lengthAdjust="spacing" textLength="247.3857" x="92.8" y="1011.3107">int_to_type(i: int):data_carrier_type</text></g><!--reverse link application to library--><g class="link" data-entity-1="ent0001" data-entity-2="ent0002" data-link-type="composition" data-source-line="27" id="lnk3"><path codeline="27" d="M590.0013,285.6148 C517.5313,340.7748 420.2,414.8669 336.64,478.4769" fill="none" id="application-backto-library" style="stroke:#181818;stroke-width:1;"/><polygon fill="#181818" points="599.55,278.3469,592.353,278.7979,590.0013,285.6148,597.1983,285.1637,599.55,278.3469" style="stroke:#181818;stroke-width:1;stroke-linejoin:miter;stroke-miterlimit:10;"/><polygon fill="#000000" points="418.2515,427.2318,427.2288,424.0917,423.6686,419.4147,418.2515,427.2318" style="stroke:#000000;stroke-width:1;stroke-linejoin:miter;stroke-miterlimit:10;"/><text fill="#000000" font-family="sans-serif" font-size="13" lengthAdjust="spacing" textLength="55.0278" x="431.23" y="428.7038">contains</text></g><!--reverse link application to console--><g class="link" data-entity-1="ent0001" data-entity-2="ent0004" data-link-type="composition" data-source-line="28" id="lnk5"><path codeline="28" d="M634.002,397.4959 C627.232,423.3659 623.43,437.8969 617.09,462.1469" fill="none" id="application-backto-console" style="stroke:#181818;stroke-width:1;"/><polygon fill="#181818" points="637.04,385.8869,631.6513,390.6787,634.002,397.4959,639.3907,392.7041,637.04,385.8869" style="stroke:#181818;stroke-width:1;stroke-linejoin:miter;stroke-miterlimit:10;"/><polygon fill="#000000" points="632.5946,429.0405,637.727,421.0336,632.0404,419.5461,632.5946,429.0405" style="stroke:#000000;stroke-width:1;stroke-linejoin:miter;stroke-miterlimit:10;"/><text fill="#000000" font-family="sans-serif" font-size="13" lengthAdjust="spacing" textLength="55.0278" x="642.86" y="428.7038">contains</text></g><!--reverse link application to reader--><g class="link" data-entity-1="ent0001" data-entity-2="ent0006" data-link-type="composition" data-source-line="29" id="lnk7"><path codeline="29" d="M768.8795,396.4174 C795.9795,452.3874 818.48,498.8469 836.28,535.5969" fill="none" id="application-backto-reader" style="stroke:#181818;stroke-width:1;"/><polygon fill="#181818" points="763.65,385.6169,762.6646,392.7603,768.8795,396.4174,769.8649,389.274,763.65,385.6169" style="stroke:#181818;stroke-width:1;stroke-linejoin:miter;stroke-miterlimit:10;"/><polygon fill="#000000" points="791.2593,428.7034,789.962,419.2817,784.6719,421.8436,791.2593,428.7034" style="stroke:#000000;stroke-width:1;stroke-linejoin:miter;stroke-miterlimit:10;"/><text fill="#000000" font-family="sans-serif" font-size="13" lengthAdjust="spacing" textLength="55.0278" x="798.08" y="428.7038">contains</text></g><!--reverse link application to writer--><g class="link" data-entity-1="ent0001" data-entity-2="ent0008" data-link-type="composition" data-source-line="30" id="lnk9"><path codeline="30" d="M772.7354,291.851 C862.1754,366.251 993.05,475.0969 1065.9,535.6869" fill="none" id="application-backto-writer" style="stroke:#181818;stroke-width:1;"/><polygon fill="#181818" points="763.51,284.1769,765.5647,291.0891,772.7354,291.851,770.6807,284.9388,763.51,284.1769" style="stroke:#181818;stroke-width:1;stroke-linejoin:miter;stroke-miterlimit:10;"/><polygon fill="#000000" points="945.0341,427.4006,939.9594,419.3571,936.2007,423.8761,945.0341,427.4006" style="stroke:#000000;stroke-width:1;stroke-linejoin:miter;stroke-miterlimit:10;"/><text fill="#000000" font-family="sans-serif" font-size="13" lengthAdjust="spacing" textLength="55.0278" x="950.19" y="428.7038">contains</text></g><!--link console to screen_builder--><g class="link" data-entity-1="ent0004" data-entity-2="ent0010" data-link-type="extension" data-source-line="48" id="lnk11"><path codeline="48" d="M587.49,690.1669 C587.49,714.7869 587.49,723.1069 587.49,748.5569" fill="none" id="console-to-screen_builder" style="stroke:#181818;stroke-width:1;stroke-dasharray:7,7;"/><polygon fill="none" points="587.49,766.5569,593.49,748.5569,581.49,748.5569,587.49,766.5569" style="stroke:#181818;stroke-width:1;stroke-linejoin:miter;stroke-miterlimit:10;"/><text fill="#000000" font-family="sans-serif" font-size="13" lengthAdjust="spacing" textLength="23.0103" x="588.49" y="732.9738">use</text></g><!--reverse link screen_builder to screen--><g class="link" data-entity-1="ent0010" data-entity-2="ent0012" data-link-type="composition" data-source-line="79" id="lnk13"><path codeline="79" d="M587.49,1055.1369 C587.49,1090.9269 587.49,1115.5069 587.49,1144.3369" fill="none" id="screen_builder-backto-screen" style="stroke:#181818;stroke-width:1;"/><polygon fill="#181818" points="587.49,1043.1369,583.49,1049.1369,587.49,1055.1369,591.49,1049.1369,587.49,1043.1369" style="stroke:#181818;stroke-width:1;stroke-linejoin:miter;stroke-miterlimit:10;"/><polygon fill="#000000" points="592.49,1086.6233,595.4289,1077.5782,589.5511,1077.5782,592.49,1086.6233" style="stroke:#000000;stroke-width:1;stroke-linejoin:miter;stroke-miterlimit:10;"/><text fill="#000000" font-family="sans-serif" font-size="13" lengthAdjust="spacing" textLength="55.0278" x="601.49" y="1086.1238">contains</text></g><!--reverse link reader to handler--><g class="link" data-entity-1="ent0006" data-entity-2="ent0014" data-link-type="extension" data-source-line="91" id="lnk15"><path codeline="91" d="M877.7917,633.7486 C903.7817,699.5586 948.61,813.0969 972.17,872.7869" fill="none" id="reader-backto-handler" style="stroke:#181818;stroke-width:1;"/><polygon fill="none" points="871.18,617.0069,872.2111,635.9525,883.3723,631.5447,871.18,617.0069" style="stroke:#181818;stroke-width:1;stroke-linejoin:miter;stroke-miterlimit:10;"/><text fill="#000000" font-family="sans-serif" font-size="13" lengthAdjust="spacing" textLength="52.0508" x="917.12" y="732.9738">extends</text></g><!--reverse link writer to handler--><g class="link" data-entity-1="ent0008" data-entity-2="ent0014" data-link-type="extension" data-source-line="99" id="lnk16"><path codeline="99" d="M1091.1905,633.7495 C1065.2105,699.5595 1020.38,813.0969 996.81,872.7869" fill="none" id="writer-backto-handler" style="stroke:#181818;stroke-width:1;"/><polygon fill="none" points="1097.8,617.0069,1085.6096,631.5463,1096.7713,635.9526,1097.8,617.0069" style="stroke:#181818;stroke-width:1;stroke-linejoin:miter;stroke-miterlimit:10;"/><text fill="#000000" font-family="sans-serif" font-size="13" lengthAdjust="spacing" textLength="52.0508" x="1057.72" y="732.9738">extends</text></g><!--reverse link data_carrier to data_carrier_type--><g class="link" data-entity-1="ent0018" data-entity-2="ent0017" data-link-type="composition" data-source-line="127" id="lnk19"><path codeline="127" d="M209.49,1030.8569 C209.49,1064.5469 209.49,1088.7769 209.49,1119.9269" fill="none" id="data_carrier-backto-data_carrier_type" style="stroke:#181818;stroke-width:1;"/><polygon fill="#181818" points="209.49,1018.8569,205.49,1024.8569,209.49,1030.8569,213.49,1024.8569,209.49,1018.8569" style="stroke:#181818;stroke-width:1;stroke-linejoin:miter;stroke-miterlimit:10;"/><polygon fill="#000000" points="214.49,1086.6233,217.4289,1077.5782,211.5511,1077.5782,214.49,1086.6233" style="stroke:#000000;stroke-width:1;stroke-linejoin:miter;stroke-miterlimit:10;"/><text fill="#000000" font-family="sans-serif" font-size="13" lengthAdjust="spacing" textLength="55.0278" x="223.49" y="1086.1238">contains</text></g><!--link library to data_carrier--><g class="link" data-entity-1="ent0002" data-entity-2="ent0018" data-link-type="dependency" data-source-line="143" id="lnk20"><path codeline="143" d="M209.49,673.9669 C209.49,710.7569 209.49,747.9869 209.49,786.1369" fill="none" id="library-to-data_carrier" style="stroke:#181818;stroke-width:1;stroke-dasharray:7,7;"/><polygon fill="#181818" points="209.49,791.1369,213.49,782.1369,209.49,786.1369,205.49,782.1369,209.49,791.1369" style="stroke:#181818;stroke-width:1;stroke-linejoin:miter;stroke-miterlimit:10;"/><polygon fill="#000000" points="214.49,733.4733,217.4289,724.4282,211.5511,724.4282,214.49,733.4733" style="stroke:#000000;stroke-width:1;stroke-linejoin:miter;stroke-miterlimit:10;"/><text fill="#000000" font-family="sans-serif" font-size="13" lengthAdjust="spacing" textLength="100.3945" x="223.49" y="732.9738">contains vector</text></g><?plantuml-src bLRBRjim4BphAtWAvCRs1oY1WJRjBK615iXLeAMrJOGYNPAouZRzzovVYYZ9Hkg3RSqEkSkT8Ib2CiCC1_BCb6af9uzigwWwPrd5gTQ47e-SLTGmASYVZE1dHJZR5lRByJnaG3LCK5wGIWejEGHS0Qr15U4tW9rYneB-DmleGJPGDY3QV56GasHrm45WWUUv29Om3sipXzEwBWLq8vI94oWp0XKqyWGZKDC9n2MjvxBJ4vs3XHIpRCx7QtvbfjIL0aW7t1BLlYD_ismepwVLAgf2d0w6Cg79Pa8A4bqdUSMkSxo0AIVu9kQmdbaHqadrmiI-85ifUMObloL47sHNMja7QupmNifwUvwBH3_i6pCJTPwu59hwOXZBzP6AUsqK5heXkB969yHVBMYxzDnJoXE33Wd-oLFsW6eAtO6oEPWm7cQw30smi6j1c96PePgnQUlrsuPu-SjjoxWNejKGk-jZs5pNtOPY2Qyu3LH6ghW26zif1g8cmq5nmZiRTsKSaPwMCKCFGY9OnEmEw5Xj3hO9w8hAgMx2kgqP1On2VRFGuytHd2-73TtE1rtDQN7vucu69JStTiihsIMANQ5Ypl-X8xMiq8wWeFxe6DkJg-MwjbnaL1peQBd4HVC5HXFOKiFG44Hfiz6CTXS7_jmkFb1Hyo0-kebn4BI1tlEzLy9XuJtId2qHxRz36j36AsOfpcI9IOcT8uo-VyDYOiO2pq23tjKnHJXhqXGoIU4ekUsm7kSPk3jCT2aRdWyDgQcXPKKLRXzLclCHGWU-IFcoTF-Uw9x-nap-wNDRC_bG-uU7h-MFxq-3GFc02m1Z0lcPrJ36lYabrNi_X_d3acqLnRGm5wEjEKXL9Dl7Nke9eW0DeQ4yeuEAVe_YJSKutLgkFvhTBJEz56-9aJ_TPFdmp7Fue_DqYeQTkrEoSM4VMnJ31VZJ2oifZNIBoPahB6NvPLhl9bsnpftAD6VYU2U64-m0VDVROpZ3nhi8Ds7kcusbBDFMBfEsBljMXaQHu7Jtyi3gQQX2m-tdG-xgY69CDqhFmNU83_7YIyKqwbvQtFLsQPSu0VtRpcYybI7sSxtUf4OTDDyFGmt-0G00?></g></svg>